<svg width="79" height="78" viewBox="0 0 79 78" fill="none" xmlns="http://www.w3.org/2000/svg">
<circle cx="39.3211" cy="39.2452" r="38.7547" fill="#DD2E1D"/>
<path d="M38.3747 41.9573C40.0754 41.9573 41.7065 41.2817 42.9091 40.0791C44.1118 38.8764 44.7874 37.2453 44.7874 35.5446C44.7874 33.8438 44.1118 32.2127 42.9091 31.0101C41.7065 29.8075 40.0754 29.1318 38.3747 29.1318C36.6739 29.1318 35.0428 29.8075 33.8402 31.0101C32.6375 32.2127 31.9619 33.8438 31.9619 35.5446C31.9619 37.2453 32.6375 38.8764 33.8402 40.0791C35.0428 41.2817 36.6739 41.9573 38.3747 41.9573Z" stroke="white" stroke-width="3.26636" stroke-linecap="round" stroke-linejoin="round"/>
<path d="M50.7748 43.962H50.7513C52.2942 41.7004 53.1871 39.0587 53.3327 36.3247C53.4782 33.5908 52.8709 30.8692 51.5768 28.4565C50.2827 26.0438 48.3514 24.0325 45.9932 22.6414C43.6351 21.2503 40.9405 20.533 38.2029 20.5673C35.4652 20.6017 32.7895 21.3866 30.467 22.8364C28.1446 24.2863 26.2644 26.3455 25.0313 28.79C23.7982 31.2344 23.2594 33.9703 23.4736 36.6998C23.6878 39.4293 24.6467 42.0476 26.246 44.2698H26.2118L26.5111 44.6354C26.7249 44.9068 26.9386 45.1719 27.1524 45.4284L38.3768 59.0576L49.3426 45.702C49.7573 45.2552 50.142 44.785 50.4969 44.2933L50.7748 43.962Z" stroke="white" stroke-width="3.26636" stroke-linecap="round" stroke-linejoin="round"/>
</svg>
