<svg width="78" height="78" viewBox="0 0 78 78" fill="none" xmlns="http://www.w3.org/2000/svg">
<circle cx="39.0379" cy="39.2452" r="38.7547" fill="#DD2E1D"/>
<path d="M21.671 25.9645L37.7979 38.2972C38.1541 38.5692 38.5899 38.7166 39.0381 38.7166C39.4864 38.7166 39.9221 38.5692 40.2784 38.2972L56.4053 25.9645M22.6926 53.5475H55.3837C55.9255 53.5475 56.4452 53.3323 56.8284 52.9491C57.2116 52.5659 57.4269 52.0462 57.4269 51.5044V26.9861C57.4269 26.4442 57.2116 25.9245 56.8284 25.5413C56.4452 25.1581 55.9255 24.9429 55.3837 24.9429H22.6926C22.1507 24.9429 21.631 25.1581 21.2479 25.5413C20.8647 25.9245 20.6494 26.4442 20.6494 26.9861V51.5044C20.6494 52.0462 20.8647 52.5659 21.2479 52.9491C21.631 53.3323 22.1507 53.5475 22.6926 53.5475Z" stroke="white" stroke-width="3.72642" stroke-linecap="round"/>
</svg>
