<svg width="78" height="78" viewBox="0 0 78 78" fill="none" xmlns="http://www.w3.org/2000/svg">
<circle cx="38.7547" cy="38.7547" r="38.7547" fill="#DD2E1D"/>
<path d="M54.2891 46.8394L51.2814 43.8341C50.4848 43.038 49.4047 42.5909 48.2786 42.5909C47.1524 42.5909 46.0723 43.038 45.2757 43.8341L43.7731 45.3367C43.3788 45.7312 42.9107 46.0441 42.3954 46.2576C41.8802 46.4711 41.3279 46.581 40.7702 46.581C40.2125 46.581 39.6603 46.4711 39.145 46.2576C38.6298 46.0441 38.1617 45.7312 37.7674 45.3367L33.2619 40.8263C32.4656 40.0289 32.0183 38.948 32.0183 37.8211C32.0183 36.6941 32.4656 35.6132 33.2619 34.8158L34.7621 33.3131C35.5584 32.5157 36.0057 31.4348 36.0057 30.3078C36.0057 29.1809 35.5584 28.1 34.7621 27.3025L31.7617 24.2972C31.3936 23.8591 30.934 23.5068 30.4153 23.2651C29.8965 23.0234 29.3312 22.8982 28.7589 22.8982C28.1866 22.8982 27.6212 23.0234 27.1025 23.2651C26.5837 23.5068 26.1242 23.8591 25.756 24.2972C17.8555 32.1414 21.5839 41.2014 29.4796 49.097C37.3727 56.9926 46.4278 60.7284 54.2867 52.8598C54.727 52.4914 55.0812 52.031 55.3242 51.5108C55.5672 50.9907 55.6931 50.4236 55.6931 49.8496C55.6931 49.2755 55.5672 48.7084 55.3242 48.1883C55.0812 47.6682 54.7295 47.2077 54.2891 46.8394Z" stroke="white" stroke-width="4.00383" stroke-linecap="round" stroke-linejoin="round"/>
</svg>
