<svg width="21" height="21" viewBox="0 0 21 21" fill="none" xmlns="http://www.w3.org/2000/svg">
<circle cx="10.5" cy="10.5" r="10.5" fill="#F4F4F4"/>
<path d="M5.79436 6.90178L10.1636 10.243C10.2601 10.3167 10.3781 10.3567 10.4996 10.3567C10.621 10.3567 10.7391 10.3167 10.8356 10.243L15.2048 6.90178M6.07113 14.3748H14.928C15.0748 14.3748 15.2156 14.3164 15.3194 14.2126C15.4232 14.1088 15.4816 13.968 15.4816 13.8212V7.17855C15.4816 7.03174 15.4232 6.89094 15.3194 6.78713C15.2156 6.68332 15.0748 6.625 14.928 6.625H6.07113C5.92432 6.625 5.78352 6.68332 5.67971 6.78713C5.5759 6.89094 5.51758 7.03174 5.51758 7.17855V13.8212C5.51758 13.968 5.5759 14.1088 5.67971 14.2126C5.78352 14.3164 5.92432 14.3748 6.07113 14.3748Z" stroke="#DD2E1D" stroke-width="1.02937" stroke-linecap="round"/>
</svg>
