<svg width="21" height="21" viewBox="0 0 21 21" fill="none" xmlns="http://www.w3.org/2000/svg">
<circle cx="10.5" cy="10.5" r="10.5" fill="white"/>
<path d="M14.7088 12.6906L13.8939 11.8764C13.6781 11.6607 13.3855 11.5395 13.0803 11.5395C12.7752 11.5395 12.4826 11.6607 12.2668 11.8764L11.8597 12.2835C11.7528 12.3904 11.626 12.4751 11.4864 12.533C11.3468 12.5908 11.1972 12.6206 11.0461 12.6206C10.895 12.6206 10.7454 12.5908 10.6058 12.533C10.4662 12.4751 10.3393 12.3904 10.2325 12.2835L9.01181 11.0615C8.79606 10.8454 8.67487 10.5526 8.67487 10.2472C8.67487 9.94189 8.79606 9.64904 9.01181 9.43298L9.41827 9.02587C9.63403 8.80982 9.75521 8.51696 9.75521 8.21163C9.75521 7.90629 9.63403 7.61344 9.41827 7.39739L8.60536 6.58315C8.50562 6.46444 8.3811 6.369 8.24056 6.30352C8.10001 6.23803 7.94684 6.2041 7.79179 6.2041C7.63674 6.2041 7.48356 6.23803 7.34302 6.30352C7.20247 6.369 7.07796 6.46444 6.97821 6.58315C4.83769 8.70841 5.84784 11.1631 7.98704 13.3023C10.1256 15.4415 12.5789 16.4536 14.7082 14.3217C14.8275 14.2219 14.9234 14.0972 14.9893 13.9563C15.0551 13.8153 15.0892 13.6617 15.0892 13.5062C15.0892 13.3506 15.0551 13.197 14.9893 13.0561C14.9234 12.9152 14.8281 12.7904 14.7088 12.6906Z" stroke="#DD2E1D" stroke-width="1.07652" stroke-linecap="round" stroke-linejoin="round"/>
</svg>
